<svg width="118" height="17" viewBox="0 0 118 17" fill="none" xmlns="http://www.w3.org/2000/svg">
<path d="M82.5727 16.198C81.8687 16.198 81.2747 15.9633 80.7907 15.494C80.3067 15.0247 80.0647 14.4307 80.0647 13.712C80.0647 12.9787 80.2994 12.3847 80.7687 11.93C81.2527 11.4753 81.854 11.248 82.5727 11.248C83.306 11.248 83.9074 11.4753 84.3767 11.93C84.846 12.3847 85.0807 12.9787 85.0807 13.712C85.0807 14.4307 84.8387 15.0247 84.3547 15.494C83.8854 15.9633 83.2914 16.198 82.5727 16.198Z" fill="#0DD149"/>
<path d="M93.9732 11.908H91.5972V16H87.2412V0.600006H94.2812C95.6745 0.600006 96.8845 0.834673 97.9112 1.30401C98.9378 1.75867 99.7298 2.41867 100.287 3.28401C100.844 4.13467 101.123 5.13934 101.123 6.29801C101.123 7.41267 100.859 8.38801 100.331 9.22401C99.8178 10.0453 99.0772 10.6907 98.1092 11.16L101.431 16H96.7672L93.9732 11.908ZM96.7232 6.29801C96.7232 5.57934 96.4958 5.02201 96.0412 4.62601C95.5865 4.23001 94.9118 4.03201 94.0172 4.03201H91.5972V8.54201H94.0172C94.9118 8.54201 95.5865 8.35134 96.0412 7.97001C96.4958 7.57401 96.7232 7.01667 96.7232 6.29801Z" fill="#0DD149"/>
<path d="M110.632 16.308C108.344 16.308 106.562 15.6847 105.286 14.438C104.025 13.1913 103.394 11.424 103.394 9.13601V0.600006H107.75V9.00401C107.75 11.468 108.726 12.7 110.676 12.7C112.612 12.7 113.58 11.468 113.58 9.00401V0.600006H117.87V9.13601C117.87 11.424 117.232 13.1913 115.956 14.438C114.695 15.6847 112.92 16.308 110.632 16.308Z" fill="#0DD149"/>
<path d="M9.21799 16.308C7.60465 16.308 6.15265 15.9707 4.86198 15.296C3.58598 14.6067 2.58132 13.6533 1.84798 12.436C1.11465 11.2187 0.747986 9.83999 0.747986 8.29999C0.747986 6.75999 1.11465 5.38133 1.84798 4.16399C2.58132 2.94666 3.58598 2.00066 4.86198 1.32599C6.15265 0.636659 7.60465 0.291992 9.21799 0.291992C10.626 0.291992 11.8947 0.541326 13.024 1.03999C14.1533 1.53866 15.092 2.25733 15.84 3.19599L13.068 5.70399C12.0707 4.50133 10.8607 3.89999 9.43799 3.89999C8.60199 3.89999 7.85398 4.08333 7.19398 4.44999C6.54865 4.81666 6.04265 5.33733 5.67599 6.01199C5.32399 6.67199 5.14799 7.43466 5.14799 8.29999C5.14799 9.16533 5.32399 9.93533 5.67599 10.61C6.04265 11.27 6.54865 11.7833 7.19398 12.15C7.85398 12.5167 8.60199 12.7 9.43799 12.7C10.8607 12.7 12.0707 12.0987 13.068 10.896L15.84 13.404C15.092 14.3427 14.1533 15.0613 13.024 15.56C11.8947 16.0587 10.626 16.308 9.21799 16.308Z" fill="#00AFFF"/>
<path d="M27.8424 13.008H21.3304L20.1204 16H15.6764L22.4744 0.599992H26.7644L33.5844 16H29.0524L27.8424 13.008ZM26.5664 9.79599L24.5864 4.86799L22.6064 9.79599H26.5664Z" fill="#00AFFF"/>
<path d="M34.8193 0.599992H39.1753V12.546H46.5233V16H34.8193V0.599992Z" fill="#00AFFF"/>
<path d="M55.6887 16.308C54.0754 16.308 52.6234 15.9707 51.3327 15.296C50.0567 14.6067 49.052 13.6533 48.3187 12.436C47.5854 11.2187 47.2187 9.83999 47.2187 8.29999C47.2187 6.75999 47.5854 5.38133 48.3187 4.16399C49.052 2.94666 50.0567 2.00066 51.3327 1.32599C52.6234 0.636659 54.0754 0.291992 55.6887 0.291992C57.0967 0.291992 58.3654 0.541326 59.4947 1.03999C60.624 1.53866 61.5627 2.25733 62.3107 3.19599L59.5387 5.70399C58.5414 4.50133 57.3314 3.89999 55.9087 3.89999C55.0727 3.89999 54.3247 4.08333 53.6647 4.44999C53.0194 4.81666 52.5134 5.33733 52.1467 6.01199C51.7947 6.67199 51.6187 7.43466 51.6187 8.29999C51.6187 9.16533 51.7947 9.93533 52.1467 10.61C52.5134 11.27 53.0194 11.7833 53.6647 12.15C54.3247 12.5167 55.0727 12.7 55.9087 12.7C57.3314 12.7 58.5414 12.0987 59.5387 10.896L62.3107 13.404C61.5627 14.3427 60.624 15.0613 59.4947 15.56C58.3654 16.0587 57.0967 16.308 55.6887 16.308Z" fill="#00AFFF"/>
<path d="M63.597 8.12399H70.021V11.336H63.597V8.12399Z" fill="#00AFFF"/>
<path d="M77.9027 0.599992V16H73.5467V3.96599H70.6867V0.599992H77.9027Z" fill="#00AFFF"/>
</svg>
